# xmcd
#
# Track frame offsets:
#	150
#	20008
#	38877
#	60640
#	79991
#	101751
#	125360
#	132339
#	154949
#	170821
#	186734
#	206787
#	210631
#
# Disc length: 3120 seconds
# Revision: 0
# Processed by: cddbd v1.5.2PL0 Copyright (c) Steve Scherf et al.
# Submitted via: dBpowerAMP V12.0
#
DISCID=c80c2e0d
DTITLE=Body and Soul - Music from Body and Soul
DYEAR=2002
DGENRE=Blues
TTITLE0=Beneath the Pecan Trees
TTITLE1=Rise Up
TTITLE2=Road to Baltimore
TTITLE3=Take a Giant Step
TTITLE4=Walkin' Man
TTITLE5=Blue
TTITLE6=Body and Soul Interlude #1
TTITLE7=Dancing at the Belvedere
TTITLE8=The Key
TTITLE9=Shoes of the Fisherman
TTITLE10=Louise
TTITLE11=Body and Soul Interlude #2
TTITLE12=Before You
EXTD=
EXTT0=
EXTT1=
EXTT2=
EXTT3=
EXTT4=
EXTT5=
EXTT6=
EXTT7=
EXTT8=
EXTT9=
EXTT10=
EXTT11=
EXTT12=
PLAYORDER=
